<svg width="375" height="190" xmlns="http://www.w3.org/2000/svg" data-bbox="48 161.13002454305104 374.75619450190874 189.73995091389799" class="fl-svgdocument">

 <g>
  <title>Layer 1</title>
  <path id="svg_1" data-uid="o_f3bknabdg_4" d="m0.06054,67.62708a66.754,66.754 0 1 0 133.507,0a66.754,66.754 0 1 0 -133.507,0" data-r="88.385" data-cy="88.385" data-cx="88.385" data-type="circle" fill="#004c8f"/>
  <path id="svg_2" data-uid="o_f3bknabdg_5" d="m12.39454,67.57708a54.422,54.422 0 1 0 108.844,0a54.422,54.422 0 1 0 -108.844,0" data-r="88.385" data-cy="88.385" data-cx="88.385" data-type="circle" fill="rgba(255,255,255,1)"/>
  <g id="svg_3" fill="#004c8f" data-uid="o_f3bknabdg_6">
   <path id="svg_4" data-uid="o_f3bknabdg_7" d="m64.55754,52.28708l8.155,-10.69a6.345,6.345 0 1 0 -10.137,-7.634l-9.619,12.604c0.45,0.142 0.887,0.318 1.305,0.533l10.296,5.187z"/>
   <path id="svg_5" data-uid="o_f3bknabdg_8" d="m69.30654,56.35808a8.288,8.288 0 0 1 4.138,4.87a8.4,8.4 0 0 1 0.407,2.472l12.085,-15.956a6.345,6.345 0 1 0 -10.137,-7.634l-10.704,14.13l4.21,2.118l0.001,0z"/>
   <path id="svg_6" data-uid="o_f3bknabdg_9" d="m86.54754,51.65208l-13.156,17.224a6.343,6.343 0 0 0 5.065,10.162a6.336,6.336 0 0 0 5.074,-2.528l13.154,-17.223a6.345,6.345 0 1 0 -10.137,-7.635z"/>
   <path id="svg_7" data-uid="o_f3bknabdg_10" d="m96.70654,91.88508c1.41,-3.128 1.847,-6.739 1.938,-9.492l-0.763,1.021a7.972,7.972 0 0 1 -6.425,3.202a7.97,7.97 0 0 1 -4.831,-1.617a8.004,8.004 0 0 1 -3.162,-5.636a51.352,51.352 0 0 0 -5.237,1.816a38.331,38.331 0 0 0 -5.503,2.768l-0.18,-0.065s0,-4.665 -10.029,-11.808c-3.593,-2.56 -12.227,-6.003 -12.227,-6.003l0.954,-2.336l11.649,5.87a6.657,6.657 0 1 0 6.074,-11.846l-17.818,-8.945a6.73,6.73 0 0 0 -3.074,-0.742c-2.43,0 -4.774,1.31 -5.888,3.63c-0.848,1.77 -6.27,12.772 -6.718,17.472c-0.123,1.278 0.279,3.886 0.743,5.084c2.258,5.847 12.423,19.31 16.102,24.082l-22.925,48.165l26.955,0l-22.623,42.854l63.246,-62.035l-26.312,0l18.155,-22.811c2.54,-2.965 5.402,-7.09 7.899,-12.627l0,-0.001z"/>
   <path id="svg_8" data-uid="o_f3bknabdg_11" d="m102.44754,63.53108a6.315,6.315 0 0 0 -3.813,-1.276a6.33,6.33 0 0 0 -5.072,2.53l-7.438,9.89a6.348,6.348 0 0 0 10.14,7.634l7.435,-9.89a6.347,6.347 0 0 0 -1.252,-8.888z"/>
  </g>
  <path id="svg_9" d="m175.68854,35.82208l-1.505,8.695l-14.825,0l-2.564,14.714l-10.088,0l7.078,-40.13l27.98,0l-1.561,8.695l-17.947,0l-1.393,8.026l14.825,0zm33.776,23.409l-10.59,0l0.334,-8.75l-9.307,0l-2.731,8.75l-10.646,0l14.324,-40.13l18.393,0l0.223,40.13zm-9.364,-30.376l-3.511,0l-4.403,14.157l7.301,0l0.613,-14.157zm24.914,18.95q0,3.846 5.545,3.846t5.546,-3.456q0,-1.839 -1.895,-3.01q-1.895,-1.17 -4.598,-1.95t-5.407,-1.811q-2.703,-1.031 -4.598,-3.233q-1.895,-2.201 -1.895,-5.49q0,-13.99 18.003,-13.99q6.576,0 9.948,2.48q3.372,2.481 3.372,6.884q0,1.616 -0.418,3.093t-0.863,2.09l-0.446,0.67l-9.865,0q1.226,-1.283 1.226,-3.233q0,-3.623 -4.738,-3.623q-5.963,0 -5.963,3.79q0,1.895 1.895,3.01q1.895,1.114 4.598,1.755t5.434,1.589q2.73,0.947 4.626,3.149q1.895,2.201 1.895,5.713q0,7.078 -4.236,10.506q-4.236,3.427 -13.042,3.427q-8.806,0 -12.039,-3.12q-2.396,-2.342 -2.396,-6.466q0,-1.56 0.334,-3.4l0.167,-0.892l10.033,0l-0.112,0.67q-0.111,0.556 -0.111,1.002zm66.77,-28.703l-1.56,8.694l-13.712,0l-5.518,31.435l-10.088,0l5.518,-31.435l-13.767,0l1.56,-8.694l37.566,0l0.001,0zm24.69,40.129l-10.589,0l0.335,-8.75l-9.308,0l-2.731,8.75l-10.646,0l14.324,-40.13l18.393,0l0.223,40.13l-0.001,0zm-9.363,-30.376l-3.511,0l-4.403,14.157l7.301,0l0.613,-14.157zm33.497,18.17l-6.632,0l-2.174,12.206l-10.032,0l7.078,-40.13l17,0q6.297,0 8.972,2.899q1.951,2.23 1.951,5.685q0,1.17 -0.223,2.452l-1.114,6.298q-0.836,4.626 -4.905,7.608q-4.069,2.982 -9.921,2.982zm1.728,-19.229l-5.016,0l-1.84,10.534l4.96,0q4.571,0 5.296,-4.068l0.39,-2.285q0.111,-0.502 0.111,-1.338t-0.836,-1.84q-0.836,-1.003 -3.065,-1.003zm22.07,-8.694l10.033,0l-7.022,40.129l-10.088,0l7.078,-40.13l-0.001,0.001z" data-uid="o_f3bknabdg_12" font-family="Fugaz One" letter-spacing="0" font-size="100" fill="#004c8f"/>
  <path id="svg_10" d="m174.68454,75.27908l10.032,0l-7.022,40.129l-10.088,0l-7.023,-21.96l-3.79,21.96l-10.088,0l7.078,-40.13l10.367,0l6.911,20.511l3.623,-20.51zm40.408,31.434l-1.56,8.695l-27.98,0l7.079,-40.13l27.979,0l-1.561,8.695l-17.947,0l-1.282,7.525l14.826,0l-1.56,8.694l-14.826,0l-1.115,6.521l17.947,0zm34.5,-31.434l11.425,0l-15.717,20.232l8.64,19.897l-11.428,0l-5.462,-12.82l-9.196,12.82l-11.426,0l14.77,-19.897l-7.691,-20.232l11.425,0l4.626,13.042l10.033,-13.042l0.001,0zm49.994,0l-1.56,8.694l-13.711,0l-5.518,31.435l-10.088,0l5.518,-31.435l-13.767,0l1.56,-8.694l37.566,0z" data-uid="o_f3bknabdg_13" font-family="Fugaz One" letter-spacing="0" font-size="100" fill="#004c8f"/>
 </g>
</svg>